<?xml version="1.0" encoding="UTF-8"?>
<svg width="32" height="32" version="1.2" viewBox="0 0 800 800" xmlns="http://www.w3.org/2000/svg">
<style>.a{fill:#c375f0}</style>
<path class="a" d="m190 800c-40 0-90-25-90-93.75 0 0 0-85.05 0.2-206.75l0.3-195c-0.5-79.5 74.5-85.718 162-85.75l137.5 181.25 137.5-181.25c87.5 0.15239 162.5 6.25 162.5 93.75v393.75c0 68.75-42.805 93.75-92.5 93.75zm110-131.25v-131.25c0-62.5-100-62.5-100 0v131.25c0 56.25 100 56.25 100 0zm300 0v-131.25c0-62.5-100-62.5-100 0v131.25c0 56.25 100 56.25 100 0z"/>
<path class="a" d="m200 0h400l-200 300z" stroke-width="1.0019"/>
</svg>
