<svg version="1.2" xmlns="http://www.w3.org/2000/svg" viewBox="0 0 800 800" width="32" height="32"><style>.a{fill:#c375f0}</style><path class="a" d="m190.5 798.9c-23.3-2.1-45.5-12.7-61.6-29.6-17.4-18.3-25.9-37.2-28-62.8-0.6-7.5-0.9-85.3-0.7-207l0.3-195 2.8-10c10.2-37.3 38.8-64.5 76.8-73 5.9-1.4 15-1.8 45.4-2.2l38-0.5 67.9 90.6c37.3 49.8 68.2 90.6 68.6 90.6 0.4 0 31.3-40.8 68.6-90.6l67.9-90.6 38 0.5c30.4 0.4 39.5 0.8 45.4 2.2 19.6 4.4 35.9 13.2 49.3 26.5 18.2 18.2 27.5 38.3 29.8 64.5 1.3 14.9 1.3 380.2 0 395.1-4.4 49.5-41.9 87-91.4 91.4-13.5 1.2-403.8 1.1-417.1-0.1zm77.7-101.8c12.2-4.8 24-16.5 29-28.9 2.3-5.7 2.3-5.7 2.6-64.7 0.2-42.1 0-60.6-0.8-64.5-3.7-17.2-17.2-32-34.3-37.2-9.1-2.7-24.4-2.2-32.9 1.1-12.4 4.8-23.9 16.3-29 28.9l-2.3 5.7-0.3 60.5c-0.3 58.2-0.2 60.7 1.8 67.1 4.6 15.3 17 27.8 32.8 33 8.1 2.7 25.3 2.2 33.4-1zm300 0c12.2-4.8 24-16.5 29-28.9 2.3-5.7 2.3-5.7 2.6-64.7 0.2-42.1 0-60.6-0.8-64.5-3.7-17.2-17.2-32-34.3-37.2-9.1-2.7-24.4-2.2-32.9 1.1-12.4 4.8-23.9 16.3-29 28.9l-2.3 5.7-0.3 60.5c-0.3 58.2-0.2 60.7 1.8 67.1 4.6 15.3 17 27.8 32.8 33 8.1 2.7 25.3 2.2 33.4-1z"/><path class="a" d="m300.2 149.3l-99.2-148.8 99.5-0.3c54.7-0.1 144.3-0.1 199 0l99.5 0.3-99 148.5c-54.4 81.7-99.4 148.6-99.8 148.8-0.5 0.1-45.5-66.7-100-148.5z"/></svg>
