<svg version="1.2" xmlns="http://www.w3.org/2000/svg" viewBox="0 0 800 800" width="32" height="32"><style>.a{fill:#c375f0}</style><path fill-rule="evenodd" class="a" d="m402.5 0.4c13.8 0.3 17.2 0.7 24.8 3 4.8 1.4 11.3 3.8 14.4 5.2 3.2 1.4 9.6 5.1 14.3 8.2 4.7 3.1 11.4 8.6 15 12.2 3.6 3.6 9.1 10.3 12.2 15 3.1 4.7 6.8 11.1 8.2 14.3 1.4 3.1 3.8 9.6 5.3 14.5 2.5 8.1 2.7 9.9 2.7 27.2 0 17.3-0.2 19.1-2.7 27.3-1.5 4.8-3.9 11.3-5.3 14.5-1.4 3.1-5.1 9.5-8.2 14.2-3.1 4.7-8.6 11.4-12.2 15-3.6 3.6-10.3 9.1-15 12.2-4.7 3.1-11.2 6.9-14.5 8.3-3.3 1.5-9.6 3.7-22 7.4l296 0.6 9.5 2.6c5.2 1.5 12.4 4 16 5.6 3.6 1.6 9.9 5.1 14 7.7 4.1 2.7 11 8.3 15.3 12.5 4.4 4.2 10.3 11.2 13.2 15.6 3 4.4 6.8 11.2 8.6 15 1.7 3.9 4.2 11.3 7.9 26v431l-2.4 9.5c-1.3 5.2-3.8 12.6-5.5 16.5-1.8 3.9-5.6 10.6-8.6 15-2.9 4.4-8.8 11.4-13.2 15.6-4.3 4.2-11.2 9.8-15.3 12.5-4.1 2.6-10.4 6.1-14 7.7-3.6 1.6-10.8 4-25.5 7.7h-631l-9.5-2.4c-5.2-1.3-12.4-3.7-16-5.3-3.6-1.6-9.9-5.1-14-7.7-4.1-2.7-11-8.3-15.3-12.5-4.4-4.2-10.3-11.2-13.2-15.6-3-4.4-6.8-11.1-8.6-15-1.7-3.9-4.2-11.3-7.9-26v-431l2.4-9.5c1.3-5.2 3.8-12.6 5.5-16.5 1.8-3.8 5.6-10.6 8.6-15 2.9-4.4 8.8-11.4 13.2-15.6 4.3-4.2 11.2-9.8 15.3-12.5 4.1-2.6 10.4-6.1 14-7.7 3.6-1.6 10.8-4.1 25.5-8.2l148-0.5c123.1-0.4 147.1-0.7 142.5-1.8-3-0.7-9.3-2.8-14-4.8-4.7-1.9-12.3-6.1-17-9.2-4.7-3.1-11.4-8.6-15-12.2-3.6-3.6-9.1-10.3-12.2-15-3.1-4.7-6.8-11.1-8.2-14.3-1.4-3.1-3.8-9.6-5.2-14.5-2.2-7-2.7-11.4-3.2-23.2-0.3-11.3-0.1-16.4 1.3-23 0.9-4.7 3-12.1 4.6-16.5 1.6-4.4 4.7-10.9 6.8-14.5 2.1-3.6 6.5-9.9 9.8-14 3.3-4.1 9.4-10.1 13.4-13.4 4.1-3.2 10.3-7.6 13.9-9.7 3.6-2.1 10.1-5.2 14.5-6.8 4.4-1.6 11.1-3.6 15-4.5 5.2-1.2 11.1-1.5 23-1.2zm-276 406.9c-3.3 1.8-8.3 5.6-11.2 8.5-2.9 2.8-6.6 7.9-8.3 11.2-1.6 3.3-3.7 8.6-4.5 11.8-1.3 4.7-1.5 15-1.5 61 0 36.3 0.4 57 1.1 60.5 0.6 2.8 2.5 8.1 4.3 11.7 1.9 4 5.4 8.8 9.1 12.5 3.3 3.3 8.3 7.2 11 8.7 2.8 1.5 7.7 3.4 11 4.2 3.3 0.9 8.9 1.6 12.5 1.6 3.6 0 9.2-0.7 12.5-1.6 3.3-0.8 8.2-2.7 11-4.2 2.7-1.5 7.7-5.4 11-8.7 3.7-3.7 7.2-8.5 9.1-12.5 1.8-3.6 3.7-8.9 4.3-11.7 0.7-3.5 1.1-24.2 1.1-60.5 0-46-0.2-56.3-1.5-61-0.8-3.2-2.8-8.5-4.5-11.8-1.6-3.3-5.5-8.5-8.5-11.5-3-3-8.2-6.9-11.5-8.5-3.3-1.6-8.6-3.7-11.7-4.5-3.2-0.8-8.5-1.5-11.8-1.4-3.3 0-8.5 0.7-11.5 1.5-3 0.8-8.2 3-11.5 4.7zm500-0.5c-2.7 1.5-7.7 5.4-11 8.7-3.7 3.7-7.2 8.5-9.1 12.5-1.8 3.6-3.7 8.9-4.3 11.8-0.7 3.4-1.1 24.1-1.1 60.5 0 45.9 0.2 56.2 1.5 61 0.8 3.1 2.9 8.4 4.5 11.7 1.6 3.3 5.5 8.5 8.5 11.5 3 3 8.2 6.9 11.5 8.5 3.3 1.6 8.6 3.7 11.7 4.5 3.2 0.8 8.3 1.5 11.3 1.5 3 0 8.1-0.7 11.2-1.5 3.2-0.8 8.5-2.9 11.8-4.5 3.3-1.6 8.5-5.5 11.5-8.5 3-3 6.9-8.2 8.5-11.5 1.6-3.3 3.7-8.6 4.5-11.7 1.3-4.8 1.5-15.1 1.5-61 0-36.4-0.4-57.1-1.1-60.5-0.6-2.9-2.5-8.2-4.3-11.8-1.9-4-5.4-8.8-9.1-12.5-3.3-3.3-8.3-7.2-11-8.7-2.8-1.5-7.7-3.4-11-4.2-3.3-0.9-9.1-1.6-13-1.5-3.9 0-9.5 0.7-12.5 1.5-3 0.8-7.7 2.7-10.5 4.2zm-325.1 101.5c0.3 3.9 1.5 11 2.7 15.7 1.1 4.7 3.9 12.5 6.3 17.5 2.3 5 5.7 11.3 7.6 14 1.8 2.8 6.8 8.5 10.9 12.9 4.2 4.3 10.3 9.8 13.6 12.1 3.3 2.4 10.3 6.4 15.5 8.9 5.2 2.5 13.6 5.5 18.5 6.8 7.3 1.8 11.8 2.2 23.5 2.2 11.7 0 16.2-0.4 23.5-2.2 5-1.3 13.1-4.2 18-6.5 5-2.4 11.3-5.8 14-7.7 2.8-1.8 8.5-6.8 12.9-10.9 4.3-4.2 9.8-10.3 12.1-13.6 2.4-3.3 6.4-10.3 8.9-15.5 2.5-5.2 5.4-13.3 6.5-18 1.2-4.7 2.4-11.8 2.8-15.8l0.8-7.2h-198.8z"/></svg>
