<?xml version="1.0" encoding="UTF-8"?>
<svg width="32" height="32" version="1.2" viewBox="0 0 800 800" xmlns="http://www.w3.org/2000/svg">
<style>.a{fill:#c375f0}</style>
<path class="a" d="m712.5 200c36.074 0 87.5 24.809 87.5 87.5v425c0 37.131-24.869 87.5-87.5 87.5h-625c-37.298 0-87.5-24.277-87.5-87.5v-425c0-62.24 50.475-87.5 87.5-87.5zm-612.5 237.5v125c0 62.5 100 62.5 100 0v-125c0-62.5-100-62.5-100 0zm500 0v125c0 62.5 100 62.5 100 0v-125c0-62.5-100-62.5-100 0zm-100 62.5h-200c0 150 200 150 200 0z" fill-rule="evenodd"/>
<circle cx="400" cy="100" r="100" fill="#c375f0" stroke-width="25.009"/>
</svg>
